
<svg xmlns="http://www.w3.org/2000/svg"
 width="108" height="57" viewBox="75 0 1108.0 810.0" fill="none"
>
<g transform="translate(0.000000,810.000000) scale(0.10000,-0.100000)"
fill="#0015ff" stroke="none">
<path d="M6034 6322 c5 -9 86 -6 94 3 3 3 -18 5 -47 5 -29 0 -50 -4 -47 -8z"/>
<path d="M6160 6320 c19 -13 30 -13 30 0 0 6 -10 10 -22 10 -19 0 -20 -2 -8
-10z"/>
<path d="M5858 6299 c-30 -17 -20 -29 26 -29 41 0 65 17 49 34 -10 9 -56 6
-75 -5z"/>
<path d="M6377 6304 c-3 -4 -2 -15 4 -25 12 -24 77 -26 93 -3 10 14 14 14 41
0 17 -9 37 -13 47 -10 9 2 19 0 23 -6 3 -5 19 -10 35 -10 15 0 30 -7 34 -15 3
-8 16 -15 30 -15 14 0 27 -4 30 -9 4 -5 25 -12 49 -16 23 -4 67 -20 97 -36 30
-16 69 -29 86 -29 22 0 44 -12 77 -40 25 -22 52 -40 61 -40 26 0 31 -29 12
-65 -16 -29 -16 -38 -4 -79 l13 -47 32 24 32 24 61 -56 c53 -49 60 -61 60 -93
0 -20 -4 -47 -9 -60 -10 -26 -118 -98 -146 -98 -23 0 -82 61 -90 93 -5 19 0
40 19 73 14 26 26 55 26 66 0 15 -7 12 -39 -19 -28 -27 -40 -48 -43 -73 -3
-33 -5 -35 -51 -44 -35 -7 -54 -6 -68 2 -29 18 -39 -15 -12 -38 11 -9 23 -29
27 -46 6 -27 4 -30 -33 -41 -43 -14 -174 -3 -241 20 -55 18 -190 109 -190 127
0 9 11 27 24 39 20 19 31 22 61 17 24 -5 39 -14 45 -29 4 -12 23 -35 40 -51
l32 -30 72 25 c39 13 77 23 83 21 25 -6 51 18 56 50 2 18 16 65 31 103 14 39
26 79 26 90 0 11 4 27 10 35 8 12 14 12 45 -3 38 -18 55 -16 55 8 0 16 -42 27
-73 20 -17 -5 -33 4 -67 35 -25 23 -56 48 -68 57 -13 9 -28 27 -33 40 -7 18
-16 23 -42 23 -38 0 -97 -18 -97 -29 0 -4 -15 -15 -34 -24 -32 -15 -35 -15
-50 2 -9 10 -16 21 -16 25 0 4 -12 23 -27 42 -19 23 -36 34 -54 34 -15 0 -32
7 -39 15 -17 20 -33 19 -55 -5 -9 -10 -33 -24 -52 -31 -19 -6 -46 -17 -60 -24
-33 -17 -69 -5 -66 23 2 15 -2 19 -16 15 -10 -3 -32 2 -49 11 -16 8 -32 12
-36 8 -4 -3 -33 -7 -64 -7 -66 -1 -96 -16 -170 -79 l-52 -45 -37 15 c-41 18
-140 21 -156 5 -6 -6 -20 -11 -32 -11 -11 0 -36 -11 -55 -24 -19 -13 -62 -35
-95 -50 -86 -39 -89 -41 -101 -64 -20 -41 -62 -74 -83 -67 -12 3 -36 -2 -60
-15 -49 -25 -61 -25 -61 -2 0 16 71 83 191 178 48 38 63 44 102 44 35 0 53 6
74 25 l28 24 -46 1 c-30 0 -51 -6 -59 -15 -7 -8 -23 -15 -35 -15 -12 0 -28 -7
-35 -15 -7 -8 -31 -20 -54 -27 -43 -13 -130 -74 -180 -127 -17 -17 -35 -31
-41 -31 -7 0 -35 -22 -64 -50 -29 -27 -57 -50 -63 -50 -18 0 -79 -48 -143
-114 -71 -72 -182 -176 -211 -196 -34 -25 -84 -117 -84 -155 0 -71 39 -42 62
47 8 35 19 53 34 58 12 5 24 15 27 23 6 17 55 28 63 15 4 -5 1 -15 -5 -21 -20
-20 -12 -54 30 -134 22 -43 45 -82 50 -88 13 -13 11 -52 -3 -61 -6 -4 -53 -9
-102 -11 -158 -6 -174 -8 -193 -24 -24 -22 -69 -35 -178 -54 -49 -8 -121 -21
-160 -29 -38 -8 -83 -12 -98 -9 -25 5 -74 -10 -129 -38 -10 -5 -32 -9 -50 -9
-53 0 -287 -29 -363 -44 -69 -15 -178 -31 -305 -47 -36 -4 -103 -12 -149 -18
-83 -10 -186 -30 -291 -58 -30 -8 -68 -17 -85 -20 -16 -3 -35 -12 -42 -20 -8
-10 -21 -13 -41 -8 -26 5 -36 0 -85 -48 -45 -44 -56 -61 -62 -98 -9 -60 2
-381 15 -449 6 -30 12 -100 15 -155 2 -55 9 -156 16 -225 6 -69 12 -136 11
-150 0 -14 5 -94 10 -179 12 -179 13 -177 -87 -205 -33 -10 -87 -26 -119 -37
-33 -10 -72 -19 -87 -19 -28 0 -79 -34 -79 -52 0 -6 -10 -20 -23 -32 l-22 -21
0 -770 0 -770 24 -45 c14 -25 27 -52 31 -60 4 -8 22 -18 40 -23 32 -8 59 -5
191 22 26 6 98 17 160 27 63 9 128 23 144 32 17 9 53 19 80 24 28 4 82 14 120
22 183 36 275 51 640 102 55 8 138 20 185 28 179 30 290 47 425 66 77 11 158
24 180 30 22 5 120 15 218 21 125 9 177 16 177 25 0 14 109 27 210 26 49 -1
74 4 100 20 46 27 174 60 218 56 21 -2 39 -10 46 -21 9 -15 6 -22 -15 -40 -37
-31 -53 -76 -39 -111 11 -31 75 -114 104 -135 14 -11 15 -15 5 -22 -8 -5 -24
-9 -37 -9 -30 0 -20 -16 15 -25 20 -5 31 -2 40 11 18 25 142 13 162 -16 8 -11
25 -20 40 -20 14 0 37 -7 51 -15 47 -27 51 -27 68 -12 18 16 62 16 289 2 70
-5 100 -2 128 9 26 11 70 16 142 16 87 0 104 2 100 14 -11 28 17 36 48 16 32
-21 65 -26 65 -10 0 6 25 10 57 10 53 0 133 25 133 41 0 5 -8 12 -17 18 -31
17 -2 33 35 19 23 -9 35 -9 43 -1 18 18 0 36 -32 29 -15 -3 -31 -1 -34 5 -8
12 56 39 94 39 20 0 34 7 40 19 14 26 69 45 87 30 11 -9 14 -7 14 9 0 16 8 23
35 28 27 5 34 10 30 23 -3 12 8 27 40 49 43 30 52 43 70 101 7 23 6 24 -31 18
-37 -6 -88 -34 -239 -132 -84 -55 -106 -67 -195 -109 -30 -15 -63 -31 -73 -36
-29 -17 -181 -49 -279 -60 -66 -7 -101 -16 -121 -31 -43 -32 -137 -42 -279
-30 -264 21 -494 100 -528 181 -10 25 -9 33 8 58 31 43 85 68 119 56 15 -5 33
-20 39 -32 30 -60 155 -139 259 -165 90 -23 216 -40 255 -35 l35 4 -30 8 c-16
4 -44 14 -62 22 -17 8 -38 14 -47 14 -70 0 -320 104 -334 138 -3 9 4 23 17 34
29 23 127 24 238 3 127 -25 295 -30 392 -11 46 9 101 16 122 16 57 0 261 56
329 90 32 16 70 41 85 54 15 14 55 34 90 45 53 18 69 19 91 9 23 -11 28 -10
41 7 13 18 11 22 -13 42 -37 29 -20 49 48 58 28 4 65 13 82 20 17 7 92 20 166
28 251 30 315 38 410 54 52 8 140 16 196 18 67 2 111 8 131 19 20 10 68 17
143 20 62 2 116 9 119 14 15 24 71 35 307 61 33 3 72 14 86 23 21 14 48 17
136 16 60 0 115 3 122 7 7 4 38 9 68 12 31 2 75 9 97 15 22 6 55 10 73 9 18
-2 38 2 45 7 7 6 50 13 97 16 163 12 265 24 330 40 36 8 79 15 97 16 18 0 57
9 88 21 51 19 58 26 84 78 34 66 39 127 46 511 2 124 7 277 10 340 6 106 9
271 6 329 -1 25 -17 51 -32 51 -36 0 -68 -409 -71 -907 l-2 -332 -73 6 c-40 3
-98 1 -130 -5 -32 -7 -107 -16 -168 -22 -129 -13 -349 -35 -489 -50 -54 -5
-124 -14 -155 -19 -31 -6 -101 -17 -156 -26 -118 -20 -233 -42 -295 -57 -25
-6 -70 -14 -101 -18 -31 -4 -79 -12 -105 -18 -27 -6 -85 -16 -129 -22 -44 -6
-107 -15 -140 -20 -33 -5 -116 -16 -185 -25 -69 -9 -152 -20 -185 -25 -33 -5
-112 -16 -175 -25 -178 -25 -298 -45 -375 -60 -334 -67 -497 -95 -645 -111
-80 -8 -206 -22 -280 -30 -74 -9 -173 -20 -220 -24 -47 -5 -101 -13 -120 -19
-19 -6 -51 -11 -70 -11 -19 0 -71 -6 -115 -14 -44 -8 -105 -19 -135 -24 -30
-5 -102 -19 -160 -31 -153 -31 -254 -48 -350 -60 -175 -23 -445 -61 -459 -66
-8 -3 -41 -10 -75 -15 -64 -10 -245 -41 -381 -66 -148 -27 -416 -71 -519 -85
-44 -5 -83 -12 -87 -14 -3 -3 -49 -11 -100 -19 -161 -26 -223 -36 -269 -46
-25 -5 -85 -16 -135 -25 -49 -9 -119 -22 -155 -30 -36 -7 -101 -21 -145 -30
-44 -9 -106 -23 -137 -31 -32 -8 -68 -14 -80 -14 -13 0 -43 -9 -67 -20 -24
-11 -53 -18 -63 -14 -17 5 -19 13 -14 67 3 34 8 370 11 746 4 607 3 689 -11
732 -21 64 -12 74 69 82 34 3 105 17 157 30 52 14 116 28 142 32 56 8 104 46
93 73 -22 51 -43 197 -49 342 -6 121 -13 180 -27 223 -11 31 -17 68 -13 81 3
13 0 42 -6 65 -6 24 -12 161 -15 329 -2 158 -6 299 -10 314 -12 45 9 68 61 68
25 0 86 14 136 30 49 17 100 30 113 30 13 0 36 5 52 11 32 13 155 34 292 49
52 5 102 12 110 15 9 2 97 16 196 30 99 13 205 29 235 35 30 5 96 14 146 19
117 12 299 46 445 82 64 16 129 29 145 29 16 0 49 6 74 14 25 7 115 21 200 30
156 17 187 23 400 71 73 17 168 30 260 36 80 4 179 15 220 24 41 8 100 20 130
25 120 20 405 73 545 100 28 6 99 14 159 20 120 10 255 48 221 60 -11 4 -83
11 -160 15 -77 3 -160 11 -185 16 -173 38 -378 7 -610 -91 -143 -61 -175 -72
-245 -85 -38 -8 -71 -12 -73 -11 -1 2 8 16 20 31 122 150 335 302 488 348 89
28 291 35 325 13 14 -9 31 -16 39 -16 42 0 234 -65 266 -89 98 -77 279 -119
433 -102 50 6 144 13 208 16 64 3 194 16 290 30 96 14 189 25 207 25 18 0 65
8 105 19 39 10 104 23 142 29 145 23 292 45 355 52 36 5 117 17 180 29 63 11
167 23 230 26 63 4 169 16 235 27 66 11 153 24 192 28 40 5 87 13 105 18 46
14 80 19 258 37 158 16 284 40 308 58 14 11 32 -6 32 -28 -1 -47 12 -1094 13
-1140 l2 -60 -51 -6 c-65 -8 -98 -25 -89 -47 22 -58 40 -509 22 -559 -4 -12
-22 -26 -39 -32 -37 -13 -95 -14 -102 -3 -3 5 -8 138 -10 296 l-6 288 -30 34
c-24 28 -30 44 -30 81 l0 46 75 -5 c90 -6 95 -1 84 75 -13 82 -29 443 -29 644
0 154 -2 185 -15 189 -8 4 -52 -3 -98 -15 -48 -12 -116 -21 -162 -22 -95 0
-203 -11 -340 -34 -55 -9 -134 -21 -175 -25 -41 -5 -102 -16 -135 -24 -134
-32 -157 -36 -196 -36 -22 0 -72 -6 -112 -14 -40 -8 -124 -22 -187 -31 -63 -9
-137 -24 -165 -32 -27 -9 -117 -19 -200 -24 -82 -5 -186 -16 -230 -24 -44 -8
-134 -20 -200 -25 -66 -6 -156 -15 -200 -21 -44 -5 -116 -14 -160 -20 -103
-12 -278 -39 -655 -99 -69 -11 -141 -20 -161 -20 -36 0 -117 -12 -199 -31 -25
-5 -124 -18 -220 -29 -96 -10 -200 -26 -230 -34 -30 -9 -71 -16 -90 -16 -19 0
-73 -14 -120 -30 -47 -16 -97 -30 -111 -30 -14 0 -55 -9 -90 -20 -35 -10 -121
-26 -190 -35 -69 -8 -140 -20 -157 -24 -17 -5 -62 -12 -99 -16 -37 -3 -115
-15 -173 -27 -58 -11 -148 -26 -200 -33 -52 -8 -133 -23 -180 -34 -47 -11
-105 -21 -130 -21 -25 0 -70 -6 -100 -14 -30 -8 -111 -22 -180 -31 -69 -9
-146 -23 -171 -31 -26 -8 -60 -14 -75 -14 -26 0 -216 -26 -479 -65 -49 -8
-121 -21 -160 -30 -38 -9 -95 -16 -127 -15 -31 0 -59 -4 -63 -10 -3 -5 0 -52
9 -103 8 -50 20 -155 26 -232 6 -77 15 -156 20 -175 5 -19 14 -102 20 -185 23
-325 39 -456 67 -552 8 -28 13 -66 11 -84 -3 -32 -6 -34 -138 -86 -171 -68
-299 -113 -322 -113 -27 0 -32 -23 -18 -94 7 -39 13 -189 14 -387 2 -269 6
-332 19 -369 23 -64 39 -222 31 -302 -8 -81 0 -88 73 -65 57 18 146 34 503 93
52 9 120 20 150 26 30 5 78 14 105 19 28 5 113 19 190 30 185 26 301 44 410
64 50 9 119 21 154 26 35 4 77 13 95 18 80 24 319 66 491 85 72 9 171 20 220
26 159 18 397 54 560 85 44 9 106 20 137 25 31 4 72 13 90 19 31 9 110 21 273
41 39 5 90 13 115 19 25 6 67 11 93 11 27 0 96 7 155 15 59 9 157 22 217 31
61 8 178 27 260 40 83 14 177 29 210 34 33 4 78 12 100 18 22 6 85 18 140 26
55 9 125 22 155 28 30 6 92 14 136 18 45 4 103 12 130 18 27 6 96 18 154 27
58 9 137 23 175 31 90 18 221 41 310 54 39 6 106 17 150 26 44 8 116 19 160
24 44 5 96 14 115 20 19 5 53 10 74 10 22 0 78 7 125 15 47 8 140 22 206 31
66 9 188 27 270 41 83 14 181 28 218 30 58 5 69 8 76 27 4 11 8 104 9 206 3
234 11 417 22 500 10 73 3 90 -32 72 -13 -7 -65 -25 -115 -41 -116 -36 -123
-31 -99 62 10 34 21 77 26 96 5 19 15 38 22 43 7 4 81 7 163 6 149 -3 150 -3
197 25 53 32 54 46 2 76 -19 11 -34 26 -35 33 -1 7 -2 101 -3 208 -2 223 5
262 60 310 28 24 39 45 55 108 19 71 20 96 15 327 -3 138 -7 372 -9 522 l-2
271 -27 26 c-16 14 -28 29 -28 35 0 5 -10 13 -22 16 -13 4 -38 14 -57 22 -27
12 -53 14 -116 9 -45 -3 -95 -10 -111 -16 -16 -5 -83 -14 -149 -20 -66 -6
-144 -14 -174 -16 -30 -3 -62 -9 -72 -14 -18 -10 -217 -37 -359 -49 -47 -4
-92 -10 -100 -14 -8 -3 -73 -11 -145 -16 -71 -6 -143 -14 -160 -20 -70 -22
-277 -59 -372 -66 -17 -2 -48 -8 -68 -15 -19 -6 -42 -9 -50 -6 -8 3 -33 -1
-57 -8 -150 -47 -209 -59 -233 -48 -14 7 -25 18 -25 26 0 26 -19 28 -51 5 -39
-28 -116 -34 -141 -12 -22 20 -23 52 -3 60 12 4 14 15 10 47 -6 38 -3 46 24
75 26 28 29 36 19 50 -18 24 -60 61 -69 61 -4 0 -10 8 -13 18 -6 18 -112 99
-149 114 -10 4 -38 21 -62 38 -24 17 -59 33 -77 37 -18 3 -46 16 -63 28 -53
40 -129 75 -160 75 -17 0 -36 5 -42 11 -7 7 -36 16 -65 21 -29 5 -73 15 -98
20 -25 6 -77 11 -117 12 -39 1 -75 4 -79 9 -9 9 -19 9 -27 1z m-197 -159 c11
-13 9 -21 -9 -45 -12 -16 -31 -69 -42 -117 -27 -116 -39 -127 -118 -118 -77 9
-118 39 -126 93 -3 20 -12 54 -20 75 l-14 39 44 19 c24 11 65 24 92 29 26 6
73 16 103 24 72 19 75 19 90 1z m275 -12 c12 -12 16 -27 12 -52 -4 -20 -11
-67 -17 -104 -5 -38 -14 -76 -19 -85 -4 -9 -11 -34 -15 -54 -7 -38 -7 -38 -57
-38 -66 0 -71 14 -59 165 12 138 17 162 39 175 27 16 98 12 116 -7z m270 -68
c22 -14 55 -32 74 -41 28 -13 32 -19 28 -42 -6 -30 -105 -213 -121 -224 -34
-24 -126 6 -126 40 0 19 33 161 56 240 17 60 29 64 89 27z m-952 -77 c-3 -51
-9 -113 -12 -138 -6 -43 -8 -45 -41 -48 -19 -2 -49 -9 -67 -17 -17 -8 -40 -15
-51 -15 -25 0 -45 -23 -40 -47 3 -13 11 -17 34 -15 20 2 36 -4 48 -17 18 -19
17 -21 -10 -47 -16 -14 -46 -35 -67 -45 -41 -21 -113 -93 -177 -177 -23 -29
-52 -57 -65 -62 -13 -5 -29 -18 -35 -30 -8 -15 -21 -20 -53 -20 -23 0 -67 -7
-97 -16 -95 -27 -100 -27 -120 -9 -11 10 -20 26 -20 36 0 25 -29 13 -40 -15
-5 -15 -23 -26 -59 -35 -90 -23 -121 0 -121 92 0 23 -7 51 -15 61 -35 46 -11
102 57 134 91 44 289 48 337 9 17 -14 130 -47 145 -42 6 2 23 6 38 9 19 4 34
19 48 46 11 22 27 40 35 40 8 0 21 13 30 29 8 16 24 33 35 36 27 9 20 29 -11
33 -44 5 -76 23 -88 48 -6 13 -22 29 -35 34 -14 5 -32 20 -41 34 -16 24 -16
27 5 61 21 34 83 75 112 75 21 -1 209 61 263 86 85 39 86 38 78 -68z m-683
-153 c0 -30 28 -34 74 -10 56 30 86 20 136 -45 26 -33 46 -70 47 -86 1 -16 5
-47 8 -69 7 -37 5 -42 -19 -53 -46 -21 -73 -15 -101 22 -29 38 -126 92 -149
83 -9 -4 -16 -14 -16 -23 0 -14 -9 -15 -67 -9 -38 3 -87 6 -110 6 -36 0 -43 3
-43 19 0 15 7 20 30 20 26 0 32 6 57 59 22 47 37 64 73 84 60 33 80 34 80 2z
m1106 -10 c3 -8 14 -17 25 -20 31 -10 23 -35 -11 -35 -36 0 -80 19 -80 35 0
31 56 48 66 20z m-288 -26 c31 -12 27 -29 -7 -29 -17 0 -35 -8 -43 -18 -22
-30 -37 -35 -63 -18 -31 20 -32 34 -2 45 13 5 29 16 36 25 14 16 23 16 79 -5z
m3456 -375 c14 -5 16 -28 16 -154 0 -82 -4 -151 -9 -155 -5 -3 -60 -12 -123
-20 -62 -8 -119 -17 -128 -20 -8 -3 -55 -12 -104 -20 -50 -9 -95 -20 -101 -25
-9 -7 -12 -95 -13 -301 -1 -160 -4 -306 -8 -324 -7 -41 8 -52 43 -30 29 19 42
23 202 66 77 20 117 26 125 20 9 -8 11 -56 8 -183 -2 -95 -5 -174 -6 -175 -5
-6 -158 -33 -191 -33 -22 -1 -69 -9 -105 -18 -63 -17 -65 -19 -61 -47 10 -80
11 -469 1 -539 -12 -91 -7 -99 50 -90 117 18 330 67 377 85 21 9 36 10 41 4 5
-6 6 -81 4 -167 l-4 -158 -45 0 c-47 0 -217 -22 -318 -42 -33 -6 -82 -14 -110
-18 -79 -12 -166 -30 -222 -47 -38 -12 -56 -13 -65 -5 -17 13 -16 931 1 1222
7 107 11 383 10 612 0 229 2 421 6 427 3 6 35 11 70 11 35 0 76 5 92 11 15 7
46 15 68 19 120 23 443 90 460 95 16 6 23 5 39 -1z m-794 -44 c0 -5 -9 -10
-21 -10 -11 0 -17 5 -14 10 3 6 13 10 21 10 8 0 14 -4 14 -10z m-430 -78 c0
-1 -11 -20 -24 -41 -34 -54 -54 -103 -61 -156 -7 -43 -37 -95 -55 -95 -5 0
-16 23 -25 52 -13 44 -50 130 -87 201 -12 24 -3 33 17 17 13 -11 21 -11 43 0
15 7 47 16 72 20 44 6 120 8 120 2z m385 -2 c3 -5 -12 -51 -33 -102 -22 -51
-48 -120 -57 -153 -10 -33 -24 -74 -32 -92 -7 -17 -13 -38 -13 -47 0 -8 -6
-30 -14 -48 -8 -18 -21 -49 -30 -70 -9 -20 -16 -40 -16 -45 0 -4 -18 -55 -40
-113 -23 -58 -48 -125 -57 -150 -20 -60 -122 -268 -134 -275 -15 -10 -11 -139
6 -161 8 -10 15 -28 15 -39 0 -11 6 -29 14 -40 7 -11 16 -31 19 -45 9 -38 41
-127 82 -226 20 -49 51 -123 67 -164 17 -41 40 -95 50 -120 11 -25 23 -54 28
-65 10 -25 36 -84 94 -210 62 -137 60 -140 -62 -141 -63 -1 -115 -8 -147 -19
-49 -17 -49 -17 -67 5 -10 12 -18 36 -18 54 0 30 -29 126 -50 164 -10 19 -48
104 -75 167 -9 22 -33 92 -52 155 -30 97 -35 130 -36 213 0 53 -3 97 -7 97 -7
0 -50 -56 -50 -65 0 -4 -12 -32 -27 -63 l-28 -57 0 -373 0 -372 -42 0 c-23 0
-88 -9 -144 -20 -56 -11 -104 -19 -106 -17 -2 2 -5 485 -8 1073 -3 588 -8
1092 -11 1120 -11 91 -8 94 106 94 64 0 116 6 146 16 25 8 48 13 52 10 7 -7 3
-724 -4 -791 -3 -27 -12 -83 -20 -124 -8 -40 -12 -82 -9 -92 16 -48 50 -2 80
106 9 33 23 76 30 95 7 19 21 62 30 95 9 33 21 71 27 85 5 14 20 56 33 95 13
38 38 108 55 155 56 153 110 323 110 348 0 13 7 39 16 58 15 31 20 34 62 34
61 0 171 28 201 51 26 21 56 25 66 9z m-1056 -66 c37 -8 39 -23 8 -60 l-24
-27 -36 22 c-43 26 -45 34 -15 55 26 18 25 18 67 10z m-374 -64 c11 -17 -5
-32 -21 -19 -7 6 -11 15 -8 20 7 12 21 11 29 -1z m245 -40 c11 -11 20 -30 20
-42 -1 -42 -28 -213 -40 -256 -17 -56 -66 -89 -146 -97 -101 -12 -113 24 -51
149 36 74 60 162 52 197 -4 15 -1 37 5 48 16 30 130 31 160 1z m-756 -16 c24
-9 19 -27 -14 -46 -20 -11 -30 -25 -30 -40 0 -13 -11 -45 -25 -72 -15 -30 -25
-66 -25 -92 0 -24 -4 -76 -10 -116 -5 -40 -14 -108 -20 -151 -10 -77 -42 -143
-62 -131 -21 13 -40 82 -63 234 -23 152 -36 202 -60 226 -12 12 -32 39 -45 59
-21 33 -21 37 -5 48 9 7 15 19 13 27 -2 11 19 18 97 28 55 7 116 17 135 21 44
11 94 13 114 5z m2916 -36 c17 -28 20 -51 20 -141 l0 -108 -35 -35 c-19 -19
-35 -39 -35 -44 0 -6 -6 -10 -13 -10 -33 0 -49 -108 -26 -167 7 -17 12 -111
14 -243 1 -150 6 -223 15 -242 11 -23 10 -31 -10 -62 -12 -20 -31 -41 -41 -47
-11 -5 -24 -20 -29 -32 -6 -12 -19 -34 -31 -49 -28 -34 -36 -111 -17 -166 11
-32 25 -49 62 -72 25 -17 54 -30 63 -30 9 0 27 -10 40 -22 18 -17 23 -32 23
-74 0 -81 -18 -87 -82 -25 -55 53 -63 57 -73 41 -3 -5 -25 -7 -48 -4 -26 4
-63 0 -97 -10 -64 -19 -130 -21 -153 -3 -15 10 -18 34 -19 178 -2 221 -8 211
162 264 96 30 126 53 164 129 37 72 47 150 36 260 -10 100 -9 99 -110 167 -42
28 -49 30 -100 23 -77 -12 -128 -10 -142 4 -19 19 -22 316 -3 352 18 34 76 55
180 65 73 6 141 31 164 58 7 10 19 17 27 17 7 0 22 14 34 30 27 38 36 38 60
-2z m-2470 12 c0 -5 -11 -34 -25 -64 -14 -30 -25 -64 -25 -75 0 -11 -4 -22 -9
-26 -17 -10 -43 -118 -38 -153 3 -18 17 -56 30 -85 49 -108 50 -112 33 -159
-13 -37 -16 -159 -20 -907 -4 -640 -9 -867 -17 -872 -7 -4 -41 -10 -77 -14
-36 -4 -87 -14 -115 -22 -32 -9 -52 -11 -56 -5 -9 16 -7 807 3 990 8 145 7
162 -7 162 -19 0 -26 -21 -37 -113 -5 -40 -16 -101 -25 -137 -9 -36 -20 -87
-25 -115 -5 -27 -18 -93 -29 -145 -10 -52 -22 -126 -26 -165 -8 -91 -32 -253
-50 -336 -8 -37 -15 -83 -15 -103 0 -26 -7 -44 -26 -63 -23 -23 -31 -25 -81
-21 -92 8 -102 30 -147 318 -8 52 -20 129 -26 170 -7 41 -15 107 -20 146 -4
39 -11 77 -15 84 -5 7 -12 47 -16 89 -14 132 -47 375 -54 394 -12 29 -34 19
-41 -18 -3 -20 -3 -63 0 -98 4 -34 7 -303 8 -597 l2 -535 -30 -6 c-16 -4 -54
-7 -85 -8 -40 -1 -64 -7 -83 -22 -15 -12 -37 -19 -52 -17 l-26 3 2 535 c1 294
5 713 9 930 5 316 2 622 -9 844 -1 10 1 20 4 23 3 3 53 6 113 7 85 2 119 7
161 24 66 27 78 27 93 0 12 -22 32 -132 48 -263 9 -67 14 -95 47 -246 8 -37
14 -83 14 -103 0 -19 4 -68 10 -108 10 -79 35 -322 50 -490 9 -105 24 -158 44
-158 31 0 60 93 75 245 5 50 12 97 15 105 3 8 10 56 15 105 29 266 42 372 47
385 7 16 15 82 39 320 20 195 30 268 38 277 4 4 29 10 55 14 92 15 160 35 237
70 43 19 115 25 115 9z m-830 -26 c0 -9 -7 -14 -17 -12 -25 5 -28 28 -4 28 12
0 21 -6 21 -16z m-395 -74 c0 -8 -18 -27 -41 -43 l-41 -29 -46 22 c-66 31 -63
44 15 60 62 12 113 8 113 -10z m-431 -58 c3 -5 -15 -25 -39 -46 -25 -20 -45
-43 -45 -50 0 -7 -9 -25 -21 -40 -17 -22 -20 -35 -15 -71 4 -24 3 -52 -3 -62
-5 -10 -12 -26 -15 -35 -3 -10 -10 -18 -15 -18 -9 0 -41 71 -41 94 0 7 -15 27
-34 44 -24 21 -33 37 -29 51 3 13 -1 21 -16 26 -35 11 -25 20 52 50 39 16 78
33 85 38 27 21 126 34 136 19z m281 -249 c-2 -109 -7 -281 -10 -383 -3 -102
-7 -538 -10 -970 l-5 -784 -77 -13 c-43 -7 -98 -20 -123 -29 -98 -34 -97 -35
-119 71 -7 33 -19 80 -27 105 -7 25 -20 72 -29 105 -9 33 -21 74 -26 90 -6 17
-14 46 -19 65 -4 19 -12 55 -18 80 -6 25 -18 81 -27 125 -9 44 -22 109 -30
145 -8 36 -24 119 -35 185 -12 66 -31 154 -42 195 -11 41 -22 84 -25 95 -5 22
-18 56 -37 95 -6 14 -22 26 -35 28 -22 3 -23 1 -17 -30 3 -18 11 -62 17 -98
13 -79 28 -1278 17 -1302 -6 -13 -20 -18 -48 -18 -54 0 -127 -18 -174 -42 -21
-11 -42 -16 -46 -11 -5 4 -11 382 -14 838 -5 761 -7 921 -20 1327 -6 159 -22
139 130 157 50 6 126 20 169 31 53 14 82 17 90 10 7 -6 15 -37 18 -70 7 -59
37 -194 96 -430 16 -63 34 -137 41 -165 7 -27 16 -73 20 -102 5 -28 11 -57 15
-63 3 -5 22 -101 41 -212 19 -111 40 -208 46 -215 15 -19 46 -16 52 5 3 9 -1
82 -10 162 -12 108 -18 274 -21 651 l-4 506 32 7 c17 3 47 6 66 6 47 0 125 20
143 36 8 8 24 14 37 14 l22 0 -4 -197z m-998 101 c10 -27 -22 -47 -73 -46 -77
1 -80 29 -4 50 51 15 70 14 77 -4z m2789 -91 c-4 -8 -16 -13 -28 -11 -28 4
-38 45 -13 54 9 4 22 18 28 33 11 25 12 25 15 -18 2 -24 1 -50 -2 -58z m-3236
13 c0 -8 -6 -16 -14 -19 -37 -14 -87 -185 -84 -284 4 -111 -5 -394 -13 -398
-23 -15 -29 36 -32 261 -3 216 -5 242 -22 272 -11 19 -28 48 -37 65 -10 18
-21 32 -25 32 -5 1 -18 4 -30 9 -30 10 -30 30 0 22 13 -3 47 4 78 16 89 35
179 47 179 24z m4295 -509 c1 -271 -2 -526 -8 -567 -5 -41 -8 -87 -8 -102 1
-17 -4 -28 -11 -28 -18 1 -58 36 -58 50 0 12 -6 25 -53 118 -15 28 -27 60 -27
70 0 10 -4 22 -10 28 -11 11 -97 258 -112 323 -11 48 -2 89 37 171 12 25 32
68 45 95 12 28 35 75 50 105 15 30 34 82 41 115 16 79 33 111 66 127 24 12 29
12 37 0 4 -8 9 -235 11 -505z m-3974 458 c-11 -59 -12 -387 -2 -660 6 -170 11
-398 10 -505 0 -107 -1 -339 -2 -515 l-2 -320 -40 -79 c-54 -107 -146 -206
-228 -244 -140 -67 -342 -82 -440 -33 -64 31 -137 104 -167 166 -29 59 -27
-52 -16 1100 7 670 6 858 -3 888 -17 51 -3 67 58 67 25 1 83 13 129 29 78 26
85 27 103 12 19 -15 19 -20 8 -64 -9 -37 -10 -167 -4 -545 5 -273 9 -594 9
-712 1 -118 2 -310 4 -426 l2 -212 31 -13 c62 -25 223 29 245 84 11 28 11
1020 -1 1529 -10 447 -15 424 89 426 49 1 80 8 119 27 62 30 104 30 98 0z
m2872 -39 c3 -7 0 -46 -6 -86 -8 -54 -8 -178 1 -484 18 -587 16 -1200 -2
-1219 -8 -8 -45 -17 -85 -20 -40 -3 -87 -12 -107 -19 -25 -9 -40 -9 -52 -2
-16 10 -17 73 -22 840 -4 678 -8 834 -19 856 -23 44 -11 54 75 62 77 7 156 37
183 70 16 20 27 20 34 2z m-3803 -18 c0 -7 -16 -24 -36 -37 l-36 -25 -19 25
c-23 30 -23 36 -1 42 38 10 92 7 92 -5z m-430 -67 c0 -11 -12 -29 -28 -39 -16
-12 -35 -41 -46 -73 -18 -49 -19 -92 -20 -718 -1 -366 -5 -672 -9 -678 -5 -7
-12 -97 -16 -201 -6 -155 -11 -192 -26 -215 -46 -71 -68 12 -45 170 16 108 7
152 -36 197 -43 44 -80 64 -128 69 -38 4 -67 31 -63 57 1 8 17 22 35 30 17 9
47 33 65 55 29 35 32 46 33 110 1 38 -4 95 -12 125 -7 30 -20 111 -29 180 -8
69 -20 152 -26 185 -6 33 -13 120 -15 194 -4 121 -6 136 -25 154 -16 15 -19
26 -14 46 4 14 7 40 6 56 -3 87 -9 163 -15 183 -9 29 1 62 20 62 8 0 25 7 37
14 12 8 52 20 89 26 37 5 77 14 90 19 13 6 58 10 101 10 70 1 77 -1 77 -18z
m302 -116 c-2 -44 2 -246 8 -450 10 -288 10 -424 1 -615 -7 -135 -11 -366 -11
-515 1 -242 -1 -277 -19 -338 -26 -89 -67 -159 -141 -240 -111 -120 -234 -171
-403 -164 -56 2 -118 10 -137 18 -55 22 -126 75 -162 122 -63 79 -68 99 -77
357 -4 129 -5 244 -1 255 6 15 27 25 86 40 44 10 108 30 144 43 36 14 82 27
104 29 l38 5 -5 -33 c-3 -19 -11 -59 -17 -89 -6 -30 -17 -88 -25 -128 -8 -40
-15 -103 -15 -141 0 -59 4 -73 29 -108 16 -22 45 -48 66 -57 36 -17 39 -17 77
0 50 22 120 100 136 150 8 23 17 143 22 294 5 140 14 318 20 395 9 104 9 260
1 605 -6 256 -13 489 -16 519 -7 70 3 81 72 81 62 0 139 17 168 37 11 7 29 12
40 11 18 -3 20 -9 17 -83z m638 -541 c0 -17 -26 -19 -36 -3 -7 12 15 31 28 23
4 -3 8 -12 8 -20z m0 -59 c0 -8 -6 -15 -14 -15 -17 0 -28 14 -19 24 12 12 33
6 33 -9z m3 -172 c3 -71 1 -150 -3 -178 -12 -69 -12 -400 0 -514 10 -96 -1
-176 -24 -168 -21 7 -24 65 -20 325 3 147 5 278 5 292 0 14 0 98 -1 188 -1 89
2 167 5 172 3 6 12 10 19 10 10 0 14 -33 19 -127z m3902 -498 c14 -14 25 -33
25 -41 0 -23 80 -168 98 -178 20 -11 32 -26 32 -41 0 -18 -108 -65 -150 -65
-21 0 -42 -4 -45 -10 -5 -8 -93 -3 -104 6 -6 6 31 44 42 44 6 0 19 7 29 17 15
14 18 33 18 135 0 103 9 158 25 158 2 0 16 -11 30 -25z m1475 -20 c0 -8 -4
-15 -10 -15 -5 0 -10 7 -10 15 0 8 5 15 10 15 6 0 10 -7 10 -15z m-6770 -80
c0 -8 -6 -15 -14 -15 -17 0 -28 14 -19 24 12 12 33 6 33 -9z m4824 -254 c9
-13 -3 -39 -21 -45 -24 -10 -45 12 -32 35 10 20 44 26 53 10z m-2402 -38 c10
-9 18 -25 18 -36 0 -38 62 -199 93 -244 l32 -45 -24 -19 c-13 -10 -35 -19 -50
-19 -14 0 -51 -7 -80 -15 -78 -20 -102 6 -66 75 11 21 45 260 45 316 0 9 14 3
32 -13z m1999 -59 c11 -14 9 -15 -16 -12 -16 1 -30 9 -33 16 -6 18 33 15 49
-4z m-489 -22 c26 -13 50 -27 53 -32 7 -11 -41 -44 -53 -36 -4 3 -26 -1 -48
-9 -45 -16 -74 -19 -74 -6 0 5 9 11 20 14 12 3 20 14 20 26 0 24 21 73 29 68
3 -2 27 -13 53 -25z m-395 -44 c57 -55 39 -88 -50 -91 -64 -2 -72 2 -63 38 6
23 61 85 75 85 3 0 20 -14 38 -32z m-512 -108 c8 -25 -1 -41 -20 -33 -19 7
-20 53 -1 53 8 0 17 -9 21 -20z m-1147 -84 c2 -16 15 -44 28 -61 13 -18 24
-36 24 -41 0 -12 -165 -39 -179 -30 -14 9 9 60 55 117 43 54 67 59 72 15z
m-940 -134 c94 -94 113 -127 81 -137 -10 -4 -23 -4 -29 0 -5 3 -18 1 -28 -4
-32 -17 -203 -51 -257 -51 -27 0 -56 4 -64 9 -18 11 -3 36 78 131 31 36 67 82
79 103 13 20 30 37 38 37 8 0 54 -40 102 -88z m-1116 -156 c6 -14 16 -27 23
-30 27 -10 125 -91 125 -103 0 -42 -129 -55 -170 -18 -25 23 -54 118 -46 151
9 33 52 33 68 0z m4087 8 c10 -9 -15 -23 -59 -34 -27 -7 -50 -16 -50 -21 0
-27 -230 -80 -280 -64 -11 3 -30 -1 -43 -10 -23 -15 -113 -18 -347 -12 -63 2
-65 3 -68 29 -3 29 -1 30 113 43 28 3 113 14 190 25 332 48 520 64 544 44z
m-69 -488 c0 -14 -29 -26 -67 -26 -13 0 -23 5 -23 10 0 6 10 10 23 10 12 0 29
5 37 10 21 14 30 12 30 -4z"/>
<path d="M5547 5872 c-39 -29 -48 -52 -19 -52 16 0 49 29 65 57 15 24 -12 22
-46 -5z"/>
<path d="M4888 5479 c-49 -25 -52 -54 -6 -45 35 7 81 44 72 57 -8 13 -25 10
-66 -12z"/>
<path d="M5040 5428 c0 -13 -7 -33 -15 -45 -20 -28 2 -45 22 -18 15 22 17 71
3 80 -6 3 -10 -4 -10 -17z"/>
<path d="M5020 5780 c-25 -19 -25 -20 -3 -20 12 0 27 9 33 20 13 25 2 25 -30
0z"/>
<path d="M6831 4506 c-9 -10 -9 -16 -1 -21 17 -10 37 12 24 25 -8 8 -15 6 -23
-4z"/>
<path d="M6038 4474 c-26 -8 -50 -19 -53 -24 -3 -6 -20 -10 -36 -10 -17 0 -40
-5 -51 -11 -32 -17 -4 -29 67 -29 46 0 71 7 110 28 55 30 72 62 33 61 -13 0
-44 -7 -70 -15z"/>
<path d="M6680 4480 c-12 -8 -10 -10 10 -11 45 -3 95 3 105 12 12 12 -96 11
-115 -1z"/>
<path d="M4940 4289 c-92 -11 -164 -40 -168 -66 -5 -32 34 -33 140 -5 51 13
105 26 121 29 34 7 35 26 2 41 -14 7 -27 11 -28 11 -1 -1 -31 -5 -67 -10z"/>
<path d="M5378 3253 c-31 -8 -19 -24 15 -21 17 2 31 8 30 13 -2 12 -21 15 -45
8z"/>
<path d="M5725 6257 c-50 -17 -98 -37 -127 -53 -14 -7 -35 -14 -46 -14 -27 0
-38 -18 -17 -27 9 -3 40 4 69 16 28 11 59 21 67 21 9 0 22 7 29 15 7 8 26 15
42 15 33 0 68 16 68 30 0 13 -46 11 -85 -3z"/>
<path d="M7196 2114 c-8 -21 -8 -24 3 -24 12 0 22 28 12 35 -5 3 -12 -2 -15
-11z"/>
<path d="M5030 1811 c0 -9 66 -57 104 -76 11 -6 32 -27 45 -48 17 -25 32 -37
48 -37 31 0 29 14 -4 39 -68 51 -93 74 -93 85 0 6 -13 19 -29 29 -31 18 -71
23 -71 8z"/>
<path d="M5400 1576 c0 -17 34 -31 50 -21 16 10 -8 35 -31 35 -11 0 -19 -6
-19 -14z"/>
</g>
</svg>
